<mxfile host="app.diagrams.net" modified="2024-03-30T20:58:35.745Z" agent="Mozilla/5.0 (Windows NT 10.0; Win64; x64) AppleWebKit/537.36 (KHTML, like Gecko) Chrome/123.0.0.0 Safari/537.36" etag="hYQBp2LuvogBtoviXTP6" version="24.2.1" type="github">
  <diagram id="C5RBs43oDa-KdzZeNtuy" name="Page-1">
    <mxGraphModel dx="880" dy="434" grid="1" gridSize="10" guides="1" tooltips="1" connect="1" arrows="1" fold="1" page="1" pageScale="1" pageWidth="827" pageHeight="1169" math="0" shadow="0">
      <root>
        <mxCell id="WIyWlLk6GJQsqaUBKTNV-0" />
        <mxCell id="WIyWlLk6GJQsqaUBKTNV-1" parent="WIyWlLk6GJQsqaUBKTNV-0" />
        <mxCell id="WIyWlLk6GJQsqaUBKTNV-2" value="" style="rounded=0;html=1;jettySize=auto;orthogonalLoop=1;fontSize=11;endArrow=block;endFill=0;endSize=8;strokeWidth=1;shadow=0;labelBackgroundColor=none;edgeStyle=orthogonalEdgeStyle;" parent="WIyWlLk6GJQsqaUBKTNV-1" source="WIyWlLk6GJQsqaUBKTNV-3" edge="1">
          <mxGeometry relative="1" as="geometry">
            <mxPoint x="230" y="130" as="targetPoint" />
          </mxGeometry>
        </mxCell>
        <mxCell id="WIyWlLk6GJQsqaUBKTNV-3" value="You believe &quot;freedom&quot; and&quot;democracy&quot; are more important than a comfortable life(yes/no)" style="rounded=1;whiteSpace=wrap;html=1;fontSize=12;glass=0;strokeWidth=1;shadow=0;" parent="WIyWlLk6GJQsqaUBKTNV-1" vertex="1">
          <mxGeometry x="160" y="30" width="140" height="70" as="geometry" />
        </mxCell>
        <mxCell id="WIyWlLk6GJQsqaUBKTNV-8" value="&amp;nbsp; &amp;nbsp; &amp;nbsp; &amp;nbsp; &amp;nbsp; &amp;nbsp; &amp;nbsp; &amp;nbsp; &amp;nbsp;You graduate from school" style="rounded=0;html=1;jettySize=auto;orthogonalLoop=1;fontSize=11;endArrow=block;endFill=0;endSize=8;strokeWidth=1;shadow=0;labelBackgroundColor=none;edgeStyle=orthogonalEdgeStyle;" parent="WIyWlLk6GJQsqaUBKTNV-1" target="WIyWlLk6GJQsqaUBKTNV-11" edge="1">
          <mxGeometry x="0.0026" y="-39" relative="1" as="geometry">
            <mxPoint x="39" y="39" as="offset" />
            <mxPoint x="220" y="370" as="sourcePoint" />
          </mxGeometry>
        </mxCell>
        <mxCell id="WIyWlLk6GJQsqaUBKTNV-11" value="You have to face the problem of how to get PR, game over." style="rounded=1;whiteSpace=wrap;html=1;fontSize=12;glass=0;strokeWidth=1;shadow=0;" parent="WIyWlLk6GJQsqaUBKTNV-1" vertex="1">
          <mxGeometry x="160" y="565" width="120" height="40" as="geometry" />
        </mxCell>
        <mxCell id="Iqi15EtdgbXiaXqGtD-9-0" value="You can give up your original life to come to Canada for &quot;freedom&quot; and&quot;democracy&quot;(yes/no)" style="rounded=1;whiteSpace=wrap;html=1;fontSize=12;glass=0;strokeWidth=1;shadow=0;" vertex="1" parent="WIyWlLk6GJQsqaUBKTNV-1">
          <mxGeometry x="160" y="130" width="140" height="70" as="geometry" />
        </mxCell>
        <mxCell id="Iqi15EtdgbXiaXqGtD-9-3" value="" style="rounded=0;html=1;jettySize=auto;orthogonalLoop=1;fontSize=11;endArrow=block;endFill=0;endSize=8;strokeWidth=1;shadow=0;labelBackgroundColor=none;edgeStyle=orthogonalEdgeStyle;" edge="1" parent="WIyWlLk6GJQsqaUBKTNV-1">
          <mxGeometry relative="1" as="geometry">
            <mxPoint x="229.5" y="200" as="sourcePoint" />
            <mxPoint x="229.5" y="230" as="targetPoint" />
          </mxGeometry>
        </mxCell>
        <mxCell id="Iqi15EtdgbXiaXqGtD-9-5" value="Now, you arrive at the Georgian College,Barrie, a inconvinent village, you still want to continue?(yes/no)" style="rounded=1;whiteSpace=wrap;html=1;fontSize=12;glass=0;strokeWidth=1;shadow=0;" vertex="1" parent="WIyWlLk6GJQsqaUBKTNV-1">
          <mxGeometry x="160" y="230" width="140" height="70" as="geometry" />
        </mxCell>
        <mxCell id="Iqi15EtdgbXiaXqGtD-9-6" value="lifebattle begins. study, part-time job, and heal are three important parts of an internation student. there are two levels corresponding the two-year study here, you have to deal with the study, money, and healing yourself." style="rounded=1;whiteSpace=wrap;html=1;fontSize=12;glass=0;strokeWidth=1;shadow=0;" vertex="1" parent="WIyWlLk6GJQsqaUBKTNV-1">
          <mxGeometry x="135" y="330" width="190" height="120" as="geometry" />
        </mxCell>
        <mxCell id="Iqi15EtdgbXiaXqGtD-9-7" value="" style="rounded=0;html=1;jettySize=auto;orthogonalLoop=1;fontSize=11;endArrow=block;endFill=0;endSize=8;strokeWidth=1;shadow=0;labelBackgroundColor=none;edgeStyle=orthogonalEdgeStyle;" edge="1" parent="WIyWlLk6GJQsqaUBKTNV-1">
          <mxGeometry relative="1" as="geometry">
            <mxPoint x="229.5" y="300" as="sourcePoint" />
            <mxPoint x="229.5" y="330" as="targetPoint" />
          </mxGeometry>
        </mxCell>
        <mxCell id="Iqi15EtdgbXiaXqGtD-9-9" style="edgeStyle=orthogonalEdgeStyle;rounded=0;orthogonalLoop=1;jettySize=auto;html=1;exitX=0.75;exitY=0;exitDx=0;exitDy=0;entryX=1;entryY=0;entryDx=0;entryDy=0;" edge="1" parent="WIyWlLk6GJQsqaUBKTNV-1" source="WIyWlLk6GJQsqaUBKTNV-11" target="WIyWlLk6GJQsqaUBKTNV-11">
          <mxGeometry relative="1" as="geometry" />
        </mxCell>
        <mxCell id="Iqi15EtdgbXiaXqGtD-9-10" value="You didn&#39;t believe the concepts of&quot;freedom&quot; and &quot;democracy&quot; are more important than a comfortable life, you dont have struggles initially, so you can live your life with peace in mind initally. game over." style="rounded=1;whiteSpace=wrap;html=1;fontSize=12;glass=0;strokeWidth=1;shadow=0;" vertex="1" parent="WIyWlLk6GJQsqaUBKTNV-1">
          <mxGeometry x="630" y="485" width="130" height="160" as="geometry" />
        </mxCell>
        <mxCell id="Iqi15EtdgbXiaXqGtD-9-11" value="No" style="edgeStyle=orthogonalEdgeStyle;rounded=0;html=1;jettySize=auto;orthogonalLoop=1;fontSize=11;endArrow=block;endFill=0;endSize=8;strokeWidth=1;shadow=0;labelBackgroundColor=none;" edge="1" parent="WIyWlLk6GJQsqaUBKTNV-1">
          <mxGeometry x="-0.6909" y="11" relative="1" as="geometry">
            <mxPoint as="offset" />
            <mxPoint x="300" y="260" as="sourcePoint" />
            <mxPoint x="410" y="480" as="targetPoint" />
            <Array as="points">
              <mxPoint x="300" y="261" />
              <mxPoint x="410" y="261" />
            </Array>
          </mxGeometry>
        </mxCell>
        <mxCell id="Iqi15EtdgbXiaXqGtD-9-12" value="that&#39;s the best choise, you have seen the Canada life, it has nothing to do with &quot;freedom&quot; and &quot;democracy&quot;, but inconvinent life living with lots of immigrants from the 3rd word, just come back live the original life with peace in mind. Game over." style="rounded=1;whiteSpace=wrap;html=1;fontSize=12;glass=0;strokeWidth=1;shadow=0;" vertex="1" parent="WIyWlLk6GJQsqaUBKTNV-1">
          <mxGeometry x="325" y="480" width="150" height="170" as="geometry" />
        </mxCell>
        <mxCell id="Iqi15EtdgbXiaXqGtD-9-13" value="yes" style="edgeStyle=orthogonalEdgeStyle;rounded=0;html=1;jettySize=auto;orthogonalLoop=1;fontSize=11;endArrow=block;endFill=0;endSize=8;strokeWidth=1;shadow=0;labelBackgroundColor=none;" edge="1" parent="WIyWlLk6GJQsqaUBKTNV-1">
          <mxGeometry x="-0.9655" y="-85" relative="1" as="geometry">
            <mxPoint x="25" y="-60" as="offset" />
            <mxPoint x="310" y="170" as="sourcePoint" />
            <mxPoint x="550" y="490" as="targetPoint" />
            <Array as="points">
              <mxPoint x="300" y="170" />
              <mxPoint x="300" y="171" />
              <mxPoint x="550" y="171" />
            </Array>
          </mxGeometry>
        </mxCell>
        <mxCell id="Iqi15EtdgbXiaXqGtD-9-14" value="You value the concepts a lot, but you cant give up the life your originally have, so you are living in a painful and paradox life. game over" style="rounded=1;whiteSpace=wrap;html=1;fontSize=12;glass=0;strokeWidth=1;shadow=0;" vertex="1" parent="WIyWlLk6GJQsqaUBKTNV-1">
          <mxGeometry x="490" y="490" width="130" height="160" as="geometry" />
        </mxCell>
        <mxCell id="Iqi15EtdgbXiaXqGtD-9-16" value="" style="endArrow=classic;startArrow=classic;html=1;rounded=0;exitX=0;exitY=0.5;exitDx=0;exitDy=0;" edge="1" parent="WIyWlLk6GJQsqaUBKTNV-1">
          <mxGeometry width="50" height="50" relative="1" as="geometry">
            <mxPoint x="164" y="80" as="sourcePoint" />
            <mxPoint x="84" y="735" as="targetPoint" />
            <Array as="points">
              <mxPoint x="84" y="80" />
              <mxPoint x="84" y="365" />
              <mxPoint x="84" y="695" />
              <mxPoint x="84" y="735" />
              <mxPoint x="124" y="735" />
              <mxPoint x="254" y="735" />
              <mxPoint x="334" y="735" />
              <mxPoint x="560" y="740" />
              <mxPoint x="154" y="735" />
            </Array>
          </mxGeometry>
        </mxCell>
        <mxCell id="Iqi15EtdgbXiaXqGtD-9-18" value="play again?(yes/no)" style="rounded=1;whiteSpace=wrap;html=1;fontSize=12;glass=0;strokeWidth=1;shadow=0;" vertex="1" parent="WIyWlLk6GJQsqaUBKTNV-1">
          <mxGeometry x="490" y="670" width="120" height="40" as="geometry" />
        </mxCell>
        <mxCell id="Iqi15EtdgbXiaXqGtD-9-20" value="" style="endArrow=classic;html=1;rounded=0;exitX=0.5;exitY=1;exitDx=0;exitDy=0;" edge="1" parent="WIyWlLk6GJQsqaUBKTNV-1" source="Iqi15EtdgbXiaXqGtD-9-12">
          <mxGeometry width="50" height="50" relative="1" as="geometry">
            <mxPoint x="390" y="720" as="sourcePoint" />
            <mxPoint x="480" y="690" as="targetPoint" />
            <Array as="points">
              <mxPoint x="400" y="690" />
            </Array>
          </mxGeometry>
        </mxCell>
        <mxCell id="Iqi15EtdgbXiaXqGtD-9-21" value="" style="endArrow=classic;html=1;rounded=0;exitX=0.5;exitY=1;exitDx=0;exitDy=0;" edge="1" parent="WIyWlLk6GJQsqaUBKTNV-1">
          <mxGeometry width="50" height="50" relative="1" as="geometry">
            <mxPoint x="210" y="605" as="sourcePoint" />
            <mxPoint x="480" y="700" as="targetPoint" />
            <Array as="points">
              <mxPoint x="210" y="645" />
              <mxPoint x="210" y="700" />
            </Array>
          </mxGeometry>
        </mxCell>
        <mxCell id="Iqi15EtdgbXiaXqGtD-9-24" value="" style="endArrow=classic;html=1;rounded=0;exitX=0.5;exitY=1;exitDx=0;exitDy=0;entryX=1;entryY=0.5;entryDx=0;entryDy=0;" edge="1" parent="WIyWlLk6GJQsqaUBKTNV-1" target="Iqi15EtdgbXiaXqGtD-9-18">
          <mxGeometry width="50" height="50" relative="1" as="geometry">
            <mxPoint x="700" y="645" as="sourcePoint" />
            <mxPoint x="780" y="685" as="targetPoint" />
            <Array as="points">
              <mxPoint x="700" y="685" />
            </Array>
          </mxGeometry>
        </mxCell>
        <mxCell id="Iqi15EtdgbXiaXqGtD-9-25" value="" style="endArrow=none;html=1;rounded=0;" edge="1" parent="WIyWlLk6GJQsqaUBKTNV-1">
          <mxGeometry width="50" height="50" relative="1" as="geometry">
            <mxPoint x="560" y="740" as="sourcePoint" />
            <mxPoint x="560" y="710" as="targetPoint" />
          </mxGeometry>
        </mxCell>
        <mxCell id="Iqi15EtdgbXiaXqGtD-9-27" value="No" style="edgeStyle=orthogonalEdgeStyle;rounded=0;html=1;jettySize=auto;orthogonalLoop=1;fontSize=11;endArrow=block;endFill=0;endSize=8;strokeWidth=1;shadow=0;labelBackgroundColor=none;" edge="1" parent="WIyWlLk6GJQsqaUBKTNV-1">
          <mxGeometry x="-0.923" y="16" relative="1" as="geometry">
            <mxPoint as="offset" />
            <mxPoint x="310" y="65" as="sourcePoint" />
            <mxPoint x="690" y="490" as="targetPoint" />
            <Array as="points">
              <mxPoint x="310" y="66" />
              <mxPoint x="690" y="66" />
            </Array>
          </mxGeometry>
        </mxCell>
        <mxCell id="Iqi15EtdgbXiaXqGtD-9-33" value="" style="endArrow=classic;html=1;rounded=0;" edge="1" parent="WIyWlLk6GJQsqaUBKTNV-1">
          <mxGeometry width="50" height="50" relative="1" as="geometry">
            <mxPoint x="549.5" y="650" as="sourcePoint" />
            <mxPoint x="549.5" y="670" as="targetPoint" />
          </mxGeometry>
        </mxCell>
        <mxCell id="Iqi15EtdgbXiaXqGtD-9-34" value="yes" style="text;html=1;align=center;verticalAlign=middle;whiteSpace=wrap;rounded=0;" vertex="1" parent="WIyWlLk6GJQsqaUBKTNV-1">
          <mxGeometry x="220" y="200" width="60" height="30" as="geometry" />
        </mxCell>
        <mxCell id="Iqi15EtdgbXiaXqGtD-9-35" value="yes" style="text;html=1;align=center;verticalAlign=middle;whiteSpace=wrap;rounded=0;" vertex="1" parent="WIyWlLk6GJQsqaUBKTNV-1">
          <mxGeometry x="220" y="300" width="60" height="30" as="geometry" />
        </mxCell>
        <mxCell id="Iqi15EtdgbXiaXqGtD-9-36" value="no" style="text;html=1;align=center;verticalAlign=middle;whiteSpace=wrap;rounded=0;" vertex="1" parent="WIyWlLk6GJQsqaUBKTNV-1">
          <mxGeometry x="310" y="130" width="60" height="30" as="geometry" />
        </mxCell>
        <mxCell id="Iqi15EtdgbXiaXqGtD-9-37" value="yes" style="text;html=1;align=center;verticalAlign=middle;whiteSpace=wrap;rounded=0;" vertex="1" parent="WIyWlLk6GJQsqaUBKTNV-1">
          <mxGeometry x="510" y="710" width="60" height="30" as="geometry" />
        </mxCell>
      </root>
    </mxGraphModel>
  </diagram>
</mxfile>
